<?xml version="1.0" standalone="no"?><svg xmlns="http://www.w3.org/2000/svg" viewBox="0 0 1440 320"><path fill="#baddf1" fill-opacity="1" d="M0,96L40,122.7C80,149,160,203,240,218.7C320,235,400,213,480,197.3C560,181,640,171,720,149.3C800,128,880,96,960,80C1040,64,1120,64,1200,69.3C1280,75,1360,85,1400,90.7L1440,96L1440,320L1400,320C1360,320,1280,320,1200,320C1120,320,1040,320,960,320C880,320,800,320,720,320C640,320,560,320,480,320C400,320,320,320,240,320C160,320,80,320,40,320L0,320Z"></path></svg>